<?xml version="1.0" encoding="UTF-8" standalone="no"?>
<svg
   xmlns:dc="http://purl.org/dc/elements/1.1/"
   xmlns:cc="http://creativecommons.org/ns#"
   xmlns:rdf="http://www.w3.org/1999/02/22-rdf-syntax-ns#"
   xmlns:svg="http://www.w3.org/2000/svg"
   xmlns="http://www.w3.org/2000/svg"
   xmlns:sodipodi="http://sodipodi.sourceforge.net/DTD/sodipodi-0.dtd"
   xmlns:inkscape="http://www.inkscape.org/namespaces/inkscape"
   sodipodi:docname="desenhando fundo.svg"
   inkscape:version="1.0 (4035a4fb49, 2020-05-01)"
   id="svg8"
   version="1.1"
   viewBox="0 0 210 297"
   height="297mm"
   width="210mm">
  <defs
     id="defs2">
    <clipPath
       clipPathUnits="userSpaceOnUse"
       id="clipPath26">
      <path
         d="M 0,0 H 800 V 800 H 0 Z"
         id="path24" />
    </clipPath>
    <clipPath
       clipPathUnits="userSpaceOnUse"
       id="clipPath40">
      <path
         d="M 0,0 H 800 V 800 H 0 Z"
         id="path38" />
    </clipPath>
  </defs>
  <sodipodi:namedview
     inkscape:window-maximized="0"
     inkscape:window-y="0"
     inkscape:window-x="0"
     inkscape:window-height="728"
     inkscape:window-width="1366"
     showgrid="false"
     inkscape:document-rotation="0"
     inkscape:current-layer="g18"
     inkscape:document-units="mm"
     inkscape:cy="602.04766"
     inkscape:cx="1256.3875"
     inkscape:zoom="0.35"
     inkscape:pageshadow="2"
     inkscape:pageopacity="0.0"
     borderopacity="1.0"
     bordercolor="#666666"
     pagecolor="#ffffff"
     id="base" />
  <metadata
     id="metadata5">
    <rdf:RDF>
      <cc:Work
         rdf:about="">
        <dc:format>image/svg+xml</dc:format>
        <dc:type
           rdf:resource="http://purl.org/dc/dcmitype/StillImage" />
        <dc:title></dc:title>
      </cc:Work>
    </rdf:RDF>
  </metadata>
  <g
     id="layer1"
     inkscape:groupmode="layer"
     inkscape:label="Layer 1">
    <g
       id="g18"
       inkscape:label="EP_guia_BAIXAR"
       transform="matrix(0.35277777,0,0,-0.35277777,-2.7718215,291.54563)">
      <g
         inkscape:export-ydpi="96"
         inkscape:export-xdpi="96"
         id="g20">
        <g
           inkscape:export-ydpi="96"
           inkscape:export-xdpi="96"
           id="g85">
          <rect
             style="fill:#ffde59;stroke-width:6.42047;fill-opacity:1"
             id="rect72"
             width="800.71429"
             height="800.71429"
             x="800"
             y="-800"
             transform="scale(1,-1)" />
          <rect
             transform="scale(1,-1)"
             y="-800"
             x="800"
             height="410.71429"
             width="800.71429"
             id="rect74"
             style="fill:#fdbd59;stroke-width:4.59831;fill-opacity:1" />
          <path
             id="rect76"
             style="fill:#fe914c;fill-opacity:1;stroke-width:4.59831"
             transform="scale(1,-1)"
             d="m 800,-800 h 800.7144 L 800,-389.28571 Z"
             sodipodi:nodetypes="cccc" />
          <path
             sodipodi:nodetypes="cccc"
             d="m 800,-0.71429443 800.7144,0 L 800,389.28571 Z"
             style="fill:#fef858;fill-opacity:1;stroke-width:4.48085"
             id="path79" />
        </g>
      </g>
      <g
         id="g34">
        <g
           id="g36"
           clip-path="url(#clipPath40)">
          <g
             id="g42"
             transform="translate(69.1854,449.227)">
            <path
               d="m 0,0 c 3.202,-3.978 3.174,-6.359 -0.983,-10.609 -3.364,-3.439 -6.7,-6.917 -10.247,-10.161 -7.166,-6.553 -15.651,-7.825 -24.339,-4.24 -8.951,3.694 -13.91,10.867 -14.085,20.793 -0.141,8.02 -0.047,16.045 -0.01,24.068 0.029,6.071 2.817,9.482 7.635,9.464 4.716,-0.018 7.27,-3.053 7.565,-8.978 0.044,-0.88 0.118,-1.758 0.256,-3.792 1.901,1.814 3.234,3.036 4.511,4.312 6.176,6.173 12.309,12.389 18.515,18.532 3.654,3.617 7.903,4.059 10.898,1.286 C 2.909,37.719 2.641,33.352 -1.283,29.514 -3.432,27.411 -5.974,25.712 -8.097,24.024 -4.663,18.316 -1.533,14.042 0.514,9.301 1.463,7.104 0.303,3.996 0,0 m -2.527,-3.823 c -0.499,0.312 -0.999,0.624 -1.498,0.935 -0.834,-0.585 -1.594,-1.439 -2.52,-1.694 -1.605,-0.443 -3.312,-0.516 -4.977,-0.744 0.496,1.503 0.683,3.227 1.561,4.457 1.223,1.715 3.203,2.895 4.403,4.621 0.865,1.242 0.985,3.003 1.437,4.532 -1.501,-0.358 -3.22,-0.375 -4.451,-1.159 -1.617,-1.029 -2.699,-2.891 -4.302,-3.955 -1.083,-0.718 -2.669,-0.678 -4.03,-0.977 0.17,1.558 -0.19,3.512 0.619,4.593 1.794,2.399 4.341,4.225 6.235,6.565 0.775,0.958 0.655,2.641 0.942,3.993 -1.354,-0.195 -3.07,0.064 -3.99,-0.673 -2.348,-1.881 -4.138,-4.482 -6.549,-6.254 -1.544,-1.135 -3.795,-1.309 -5.729,-1.913 0.636,1.759 0.813,3.946 1.986,5.202 5.347,5.724 11.108,11.063 16.422,16.815 1.637,1.773 2.33,4.417 3.456,6.663 -2.275,-1.189 -4.971,-1.936 -6.751,-3.641 -7.716,-7.392 -15.112,-15.119 -22.772,-22.572 -1.085,-1.056 -2.986,-1.272 -4.51,-1.877 -0.476,1.429 -1.202,2.829 -1.368,4.293 -0.241,2.112 0.289,4.356 -0.191,6.382 -0.417,1.761 -1.779,3.299 -2.723,4.936 -1.13,-1.53 -3.175,-3.024 -3.237,-4.596 -0.323,-8.182 -0.488,-16.404 -0.035,-24.575 0.441,-7.919 4.487,-13.859 12.176,-16.591 7.399,-2.627 13.989,-0.979 19.537,4.665 2.871,2.922 5.875,5.716 8.658,8.717 0.98,1.056 1.481,2.555 2.201,3.852"
               style="fill:#737373;fill-opacity:1;fill-rule:nonzero;stroke:none"
               id="path44" />
          </g>
          <g
             id="g46"
             transform="translate(63.9244,502.0765)">
            <path
               d="m 0,0 c -8.611,-0.081 -15.547,-6.216 -16.767,-14.835 -0.099,-0.704 0.062,-1.552 -0.28,-2.092 -0.807,-1.277 -1.844,-2.408 -2.788,-3.597 -0.725,1.383 -2.042,2.749 -2.083,4.152 -0.316,10.936 9.395,20.858 20.864,21.576 9.965,0.623 19.546,-5.876 22.572,-15.313 3.182,-9.925 -0.588,-20.83 -9.342,-25.986 -1.668,-0.983 -4.114,-0.645 -6.202,-0.917 1.085,1.648 1.814,3.802 3.315,4.857 6.693,4.704 9.813,12.186 7.674,19.411 C 14.626,-4.853 8.065,0.076 0,0"
               style="fill:#737373;fill-opacity:1;fill-rule:nonzero;stroke:none"
               id="path48" />
          </g>
          <g
             id="g50"
             transform="translate(66.658,445.4045)">
            <path
               d="m 0,0 c -0.719,-1.297 -1.221,-2.797 -2.2,-3.853 -2.784,-3 -5.788,-5.795 -8.659,-8.716 -5.547,-5.645 -12.137,-7.293 -19.536,-4.665 -7.69,2.731 -11.736,8.672 -12.176,16.591 -0.454,8.17 -0.288,16.392 0.034,24.575 0.062,1.572 2.107,3.065 3.237,4.595 0.944,-1.636 2.306,-3.174 2.723,-4.936 0.48,-2.026 -0.049,-4.27 0.191,-6.381 0.166,-1.464 0.893,-2.865 1.369,-4.294 1.523,0.605 3.425,0.822 4.51,1.877 7.66,7.453 15.055,15.18 22.772,22.572 1.779,1.705 4.476,2.453 6.751,3.641 -1.126,-2.245 -1.819,-4.89 -3.457,-6.662 -5.314,-5.753 -11.074,-11.092 -16.421,-16.815 -1.174,-1.257 -1.35,-3.444 -1.986,-5.203 1.934,0.605 4.184,0.778 5.728,1.913 2.411,1.772 4.201,4.373 6.55,6.254 0.919,0.737 2.636,0.479 3.99,0.674 -0.287,-1.353 -0.167,-3.035 -0.942,-3.993 -1.894,-2.34 -4.441,-4.166 -6.236,-6.566 -0.808,-1.08 -0.448,-3.035 -0.619,-4.592 1.361,0.299 2.947,0.258 4.03,0.977 1.604,1.064 2.685,2.925 4.303,3.955 1.231,0.783 2.949,0.8 4.451,1.159 C -2.046,10.577 -2.166,8.817 -3.03,7.574 -4.23,5.848 -6.21,4.668 -7.434,2.953 -8.312,1.723 -8.499,0 -8.994,-1.503 c 1.664,0.228 3.372,0.3 4.977,0.743 0.925,0.256 1.685,1.11 2.52,1.695 C -0.998,0.623 -0.499,0.311 0,0"
               style="fill:#ff914c;fill-opacity:1;fill-rule:nonzero;stroke:none"
               id="path52" />
          </g>
        </g>
      </g>
    </g>
  </g>
</svg>
